<?xml version="1.0" standalone="no"?>
<!DOCTYPE svg PUBLIC "-//W3C//DTD SVG 20010904//EN"
 "http://www.w3.org/TR/2001/REC-SVG-20010904/DTD/svg10.dtd">
<svg version="1.0" xmlns="http://www.w3.org/2000/svg"
 width="700.000000pt" height="700.000000pt" viewBox="0 0 700.000000 700.000000"
 preserveAspectRatio="xMidYMid meet">
<metadata>
Created by potrace 1.14, written by Peter Selinger 2001-2017
</metadata>
<g transform="translate(0.000000,700.000000) scale(0.100000,-0.100000)"
fill="#000000" stroke="none">
<path d="M345 6986 c-153 -38 -275 -153 -323 -306 -21 -65 -21 -65 -21 -3180
-1 -2639 1 -3122 13 -3160 53 -171 154 -272 331 -328 11 -4 1417 -8 3125 -10
2292 -2 3121 0 3165 9 175 33 322 179 354 354 8 42 11 955 11 3155 0 2612 -3
3102 -14 3141 -46 150 -138 249 -296 318 -31 14 -382 16 -3165 18 -2471 1
-3141 -1 -3180 -11z m5337 -418 c39 -32 32 -48 -60 -137 -49 -47 -126 -120
-171 -161 -46 -41 -104 -95 -129 -119 -97 -90 -111 -96 -246 -97 -124 -2 -162
6 -171 36 -9 29 8 59 144 261 94 140 139 198 163 211 28 15 62 17 244 18 154
0 214 -3 226 -12z m-4205 -36 c12 -6 26 -27 32 -44 6 -20 9 -171 8 -388 -3
-382 2 -427 43 -442 18 -7 32 -2 63 19 131 93 250 149 337 160 19 2 49 8 65
12 36 9 194 7 250 -3 127 -24 278 -102 374 -196 112 -108 191 -242 240 -410
17 -55 33 -122 37 -148 3 -26 8 -51 11 -55 9 -15 11 -283 2 -347 -5 -36 -11
-81 -13 -100 -36 -272 -199 -548 -391 -662 -169 -101 -334 -132 -539 -103
-167 23 -277 65 -373 142 -82 65 -110 61 -132 -23 -20 -74 -29 -78 -224 -81
-213 -4 -232 -1 -257 40 -19 31 -20 60 -20 1302 1 1361 -1 1302 50 1330 31 17
406 14 437 -3z m3936 -706 c215 -64 383 -184 492 -352 29 -44 62 -98 72 -120
52 -102 109 -320 113 -429 6 -148 5 -154 -24 -183 l-26 -27 -618 -2 c-339 -2
-631 -5 -649 -8 -18 -3 -41 -17 -54 -33 -18 -23 -20 -36 -15 -84 6 -68 58
-187 105 -240 111 -126 331 -168 541 -103 57 18 162 92 199 141 56 73 73 79
251 79 190 0 220 -9 220 -64 0 -72 -107 -251 -209 -349 -111 -107 -286 -190
-456 -217 -83 -13 -113 -16 -215 -16 -430 0 -788 239 -915 612 -71 207 -85
422 -42 635 66 321 255 566 545 705 133 64 255 87 442 84 133 -2 167 -7 243
-29z m-1561 -2134 c23 -22 23 -28 25 -262 2 -235 1 -241 -20 -266 -29 -33 -85
-40 -324 -38 -200 2 -223 8 -244 62 -12 31 -16 435 -5 470 4 13 21 31 37 41
26 16 56 18 269 17 235 -1 240 -2 262 -24z m1654 -396 c13 -4 32 -16 43 -27
18 -20 20 -37 21 -245 0 -132 5 -234 11 -247 19 -43 47 -51 191 -57 184 -7
185 -8 190 -192 2 -94 -12 -131 -57 -148 -13 -5 -74 -10 -136 -11 -138 -2
-166 -11 -185 -56 -21 -49 -19 -945 2 -1014 29 -97 89 -125 276 -128 33 -1 54
-7 73 -24 27 -22 27 -23 26 -167 -2 -217 1 -214 -268 -216 -252 -2 -357 17
-467 81 -86 50 -155 153 -175 262 -5 25 -9 299 -9 608 0 509 -1 566 -17 598
-21 44 -55 57 -147 56 -155 -3 -165 16 -156 281 1 20 28 50 54 60 12 5 57 10
100 11 118 3 147 18 160 82 2 12 5 116 5 230 1 289 -15 273 278 270 90 -1 174
-4 187 -7z m-3491 -530 c375 -17 624 -155 691 -383 23 -78 23 -86 24 -733 0
-353 5 -622 10 -645 6 -22 13 -74 16 -117 l7 -76 -34 -17 c-27 -15 -63 -17
-221 -17 -211 0 -218 1 -264 72 -35 52 -66 60 -119 30 -98 -57 -177 -90 -275
-116 -195 -51 -469 -39 -618 27 -154 69 -241 161 -291 309 -42 122 -46 250
-10 379 64 238 249 358 639 416 64 9 137 19 155 20 32 2 126 15 180 26 28 5
61 11 74 14 130 25 203 89 216 190 13 102 -47 202 -149 246 -70 30 -226 35
-325 9 -107 -27 -160 -73 -206 -178 -40 -89 -47 -92 -262 -93 -232 -2 -220 -3
-248 26 -31 30 -32 62 -3 146 70 209 233 349 493 423 98 27 145 35 275 42 47
3 90 7 95 8 6 2 17 1 25 0 8 -2 65 -5 125 -8z"/>
<path d="M1870 5452 c-129 -42 -200 -92 -253 -179 -36 -60 -86 -173 -92 -208
-13 -80 -18 -115 -21 -150 -5 -58 -6 -174 0 -183 2 -4 7 -32 11 -62 26 -207
159 -392 317 -441 94 -30 231 -18 318 26 107 54 209 209 246 374 18 81 25 283
12 346 -5 22 -11 58 -14 80 -9 57 -74 191 -122 252 -54 67 -97 99 -167 124
-55 19 -200 32 -235 21z"/>
<path d="M5070 5457 c-181 -20 -340 -159 -358 -312 -6 -55 10 -82 56 -94 29
-7 663 -9 719 -2 23 2 53 45 53 73 0 41 -45 145 -85 196 -62 80 -146 127 -245
138 -25 3 -49 6 -55 8 -5 1 -44 -2 -85 -7z"/>
<path d="M2060 1669 c-19 -4 -55 -11 -80 -15 -25 -3 -47 -7 -50 -9 -3 -2 -34
-6 -70 -10 -91 -10 -245 -50 -283 -74 -126 -79 -163 -174 -122 -316 43 -150
278 -214 500 -136 98 35 166 103 209 209 27 69 31 95 31 220 0 101 -2 115 -19
128 -22 15 -62 17 -116 3z"/>
</g>
</svg>
