<?xml version="1.0" encoding="UTF-8" standalone="no"?>
<!-- Created with Inkscape (http://www.inkscape.org/) -->

<svg
   width="46.225624mm"
   height="46.225624mm"
   viewBox="0 0 46.225624 46.225624"
   version="1.1"
   id="svg8"
   sodipodi:docname="small_logo.svg"
   inkscape:version="1.3.2 (091e20e, 2023-11-25)"
   xmlns:inkscape="http://www.inkscape.org/namespaces/inkscape"
   xmlns:sodipodi="http://sodipodi.sourceforge.net/DTD/sodipodi-0.dtd"
   xmlns="http://www.w3.org/2000/svg"
   xmlns:svg="http://www.w3.org/2000/svg"
   xmlns:rdf="http://www.w3.org/1999/02/22-rdf-syntax-ns#"
   xmlns:cc="http://creativecommons.org/ns#"
   xmlns:dc="http://purl.org/dc/elements/1.1/">
  <sodipodi:namedview
     id="namedview1"
     pagecolor="#ffffff"
     bordercolor="#000000"
     borderopacity="0.25"
     inkscape:showpageshadow="2"
     inkscape:pageopacity="0.0"
     inkscape:pagecheckerboard="0"
     inkscape:deskcolor="#d1d1d1"
     inkscape:document-units="mm"
     inkscape:zoom="1.9917414"
     inkscape:cx="198.06788"
     inkscape:cy="75.562018"
     inkscape:window-width="1392"
     inkscape:window-height="1212"
     inkscape:window-x="0"
     inkscape:window-y="25"
     inkscape:window-maximized="0"
     inkscape:current-layer="g123" />
  <defs
     id="defs2">
    <clipPath
       id="clipPath26"
       clipPathUnits="userSpaceOnUse">
      <path
         id="path24"
         d="M 0,0 H 240.945 V 155.906 H 0 Z" />
    </clipPath>
  </defs>
  <metadata
     id="metadata5">
    <rdf:RDF>
      <cc:Work
         rdf:about="">
        <dc:format>image/svg+xml</dc:format>
        <dc:type
           rdf:resource="http://purl.org/dc/dcmitype/StillImage" />
      </cc:Work>
    </rdf:RDF>
  </metadata>
  <g
     id="layer1"
     transform="translate(-91.779709,-93.207402)">
    <g
       id="g123"
       transform="matrix(0.39674331,0,0,0.39674331,63.924835,51.066257)">
      <g
         id="g18"
         transform="matrix(1.3259061,0,0,-1.3259061,-31.269949,265.26089)">
        <g
           id="g20">
          <g
             id="g22"
             clip-path="url(#clipPath26)">
            <g
               id="g28"
               transform="translate(164.4094,37.7456)">
              <path
                 d="m 0,0 v 76.535 c 0,3.131 -2.538,5.67 -5.669,5.67 h -76.536 c -3.131,0 -5.669,-2.539 -5.669,-5.67 V 0 c 0,-3.131 2.538,-5.669 5.669,-5.669 H -5.669 C -2.538,-5.669 0,-3.131 0,0 m -28.655,26.334 c 0,0.568 0.031,1.026 0.094,1.373 0.063,0.347 0.332,0.584 0.805,0.71 0.126,0.063 0.252,0.086 0.379,0.071 0.125,-0.016 0.267,-0.024 0.426,-0.024 0.473,0 0.915,0.024 1.325,0.072 0.41,0.047 0.694,0.228 0.852,0.544 0.095,0.22 0.149,0.473 0.166,0.757 0.015,0.284 0.023,0.568 0.023,0.852 v 2.935 0.804 c 0,0.284 0.031,0.521 0.095,0.71 0.157,0.315 0.394,0.521 0.71,0.615 0.063,0.032 0.149,0.039 0.26,0.024 0.11,-0.016 0.197,-0.008 0.26,0.024 h 3.172 c 0.473,0 0.891,-0.024 1.254,-0.071 0.362,-0.047 0.623,-0.245 0.781,-0.592 0.063,-0.158 0.095,-0.347 0.095,-0.568 v -0.662 -2.13 c 0,-0.159 -0.009,-0.34 -0.024,-0.545 -0.016,-0.205 -0.008,-0.386 0.024,-0.544 v -0.521 c 0,-0.252 0.015,-0.481 0.047,-0.686 0.031,-0.206 0.11,-0.387 0.237,-0.544 0.22,-0.284 0.622,-0.435 1.206,-0.45 0.584,-0.016 1.144,-0.024 1.681,-0.024 h 0.568 c 0.189,0 0.362,-0.031 0.52,-0.094 0.347,-0.159 0.545,-0.442 0.592,-0.852 0.047,-0.411 0.071,-0.868 0.071,-1.372 0,-0.222 0.007,-0.443 0.024,-0.664 0.015,-0.22 -0.009,-0.41 -0.071,-0.567 -0.159,-0.505 -0.49,-0.774 -0.994,-0.805 -0.506,-0.032 -1.073,-0.047 -1.704,-0.047 -0.127,0 -0.261,0.007 -0.403,0.023 -0.142,0.016 -0.26,0.008 -0.355,-0.023 -0.126,-0.032 -0.236,-0.04 -0.331,-0.024 -0.095,0.016 -0.189,-0.008 -0.284,-0.071 -0.253,-0.064 -0.434,-0.197 -0.544,-0.402 -0.111,-0.206 -0.198,-0.45 -0.26,-0.734 -0.032,-0.158 -0.032,-0.331 0,-0.52 0.031,-0.19 0.031,-0.364 0,-0.521 v -2.935 -5.537 c 0,-0.789 0.023,-1.476 0.071,-2.059 0.047,-0.584 0.244,-1.097 0.591,-1.538 0.158,-0.19 0.371,-0.325 0.639,-0.403 0.268,-0.079 0.544,-0.15 0.828,-0.213 0.095,-0.032 0.197,-0.04 0.308,-0.023 0.11,0.015 0.197,0.007 0.26,-0.024 h 0.521 c 0.347,0 0.646,-0.017 0.899,-0.047 0.252,-0.032 0.457,-0.158 0.616,-0.379 0.125,-0.189 0.189,-0.434 0.189,-0.734 V 6.977 c 0,-0.663 -0.008,-1.271 -0.024,-1.823 -0.016,-0.552 -0.276,-0.923 -0.781,-1.112 -0.158,-0.063 -0.3,-0.086 -0.426,-0.071 -0.126,0.016 -0.268,-0.008 -0.426,-0.071 h -0.473 c -0.064,0 -0.158,0.008 -0.284,0.023 -0.126,0.017 -0.237,0.009 -0.331,-0.023 -0.159,-0.031 -0.324,-0.039 -0.497,-0.024 -0.174,0.017 -0.34,0.024 -0.497,0.024 -0.159,0 -0.316,-0.007 -0.474,-0.024 -0.158,-0.015 -0.3,-0.007 -0.425,0.024 h -0.521 c -0.158,0.032 -0.332,0.047 -0.521,0.047 -0.189,0 -0.363,0.016 -0.52,0.048 -0.222,0.031 -0.426,0.063 -0.616,0.094 -0.189,0.031 -0.378,0.063 -0.568,0.095 -0.347,0.094 -0.679,0.205 -0.994,0.331 -0.315,0.126 -0.615,0.268 -0.899,0.426 -0.095,0.063 -0.189,0.134 -0.284,0.213 -0.095,0.078 -0.205,0.166 -0.331,0.261 -0.064,0.063 -0.142,0.133 -0.237,0.212 -0.095,0.079 -0.174,0.15 -0.237,0.213 -0.442,0.599 -0.773,1.262 -0.993,1.988 -0.064,0.126 -0.088,0.244 -0.071,0.356 0.015,0.109 0.007,0.243 -0.024,0.401 -0.032,0.063 -0.047,0.143 -0.047,0.237 0,0.095 -0.017,0.174 -0.048,0.237 v 0.473 c -0.032,0.126 -0.04,0.268 -0.023,0.426 0.015,0.158 0.023,0.315 0.023,0.474 v 1.798 7.052 2.509 c 0,0.22 0.008,0.441 0.024,0.663 0.015,0.22 -0.008,0.425 -0.071,0.615 -0.127,0.441 -0.348,0.725 -0.663,0.852 -0.347,0.157 -0.789,0.204 -1.325,0.142 -0.537,-0.064 -0.994,-0.017 -1.373,0.142 -0.252,0.094 -0.41,0.236 -0.473,0.426 -0.063,0.189 -0.126,0.426 -0.189,0.71 z m -31.614,-4.827 v 0.284 c -0.032,0.126 -0.056,0.252 -0.071,0.378 -0.016,0.126 -0.04,0.237 -0.071,0.332 -0.316,0.946 -0.978,1.593 -1.988,1.94 -0.284,0.095 -0.623,0.166 -1.018,0.213 -0.394,0.048 -0.797,0.063 -1.206,0.048 -0.411,-0.016 -0.805,-0.056 -1.184,-0.119 -0.379,-0.063 -0.71,-0.142 -0.994,-0.236 -0.189,-0.064 -0.371,-0.15 -0.544,-0.261 -0.174,-0.11 -0.339,-0.229 -0.497,-0.355 -0.158,-0.126 -0.324,-0.3 -0.497,-0.52 -0.174,-0.221 -0.292,-0.426 -0.355,-0.615 -0.158,-0.316 -0.292,-0.616 -0.402,-0.9 -0.111,-0.284 -0.34,-0.473 -0.687,-0.568 -0.252,-0.064 -0.52,-0.094 -0.804,-0.094 h -0.852 -1.799 c -0.158,0 -0.315,-0.009 -0.473,-0.024 -0.158,-0.016 -0.3,-0.008 -0.426,0.024 h -0.426 c -0.064,0.03 -0.142,0.047 -0.237,0.047 -0.094,0 -0.173,0.031 -0.236,0.095 -0.253,0.062 -0.426,0.267 -0.521,0.615 -0.032,0.157 -0.032,0.315 0,0.473 0.031,0.158 0.063,0.3 0.095,0.426 0.094,0.347 0.197,0.67 0.307,0.971 0.111,0.299 0.244,0.575 0.403,0.828 0.094,0.157 0.189,0.315 0.284,0.473 0.094,0.158 0.189,0.315 0.284,0.474 0.252,0.346 0.568,0.678 0.946,0.993 0.063,0.031 0.158,0.111 0.284,0.237 0.158,0.126 0.3,0.236 0.426,0.331 0.126,0.095 0.268,0.19 0.426,0.284 0.536,0.347 1.104,0.623 1.704,0.828 0.599,0.205 1.214,0.403 1.846,0.592 0.379,0.095 0.773,0.158 1.183,0.19 0.41,0.03 0.82,0.094 1.231,0.189 0.126,0.031 0.323,0.031 0.592,0 0.267,-0.032 0.433,-0.017 0.497,0.047 1.293,0.031 2.532,-0.016 3.715,-0.142 1.183,-0.126 2.256,-0.363 3.218,-0.71 0.963,-0.347 1.791,-0.813 2.485,-1.396 0.694,-0.585 1.231,-1.334 1.61,-2.248 0.22,-0.537 0.346,-1.152 0.378,-1.846 0.031,-0.695 0.048,-1.405 0.048,-2.13 V 10.1 8.278 c 0,-0.615 0.062,-1.176 0.189,-1.68 0.031,-0.095 0.047,-0.198 0.047,-0.308 0,-0.111 0.016,-0.213 0.048,-0.308 0.062,-0.347 0.102,-0.694 0.118,-1.041 0.015,-0.347 -0.15,-0.584 -0.497,-0.71 -0.189,-0.094 -0.411,-0.142 -0.663,-0.142 h -0.757 -2.556 c -0.284,0 -0.56,0.008 -0.828,0.024 -0.269,0.015 -0.482,0.086 -0.639,0.213 -0.221,0.126 -0.387,0.308 -0.497,0.544 -0.111,0.237 -0.26,0.434 -0.45,0.592 -0.063,0.063 -0.142,0.118 -0.236,0.165 -0.095,0.048 -0.222,0.055 -0.379,0.024 -0.158,-0.064 -0.308,-0.142 -0.45,-0.236 -0.142,-0.095 -0.292,-0.174 -0.449,-0.237 -0.159,-0.127 -0.332,-0.237 -0.521,-0.331 -0.189,-0.095 -0.379,-0.19 -0.568,-0.285 -0.41,-0.189 -0.836,-0.339 -1.278,-0.449 -0.442,-0.111 -0.899,-0.229 -1.372,-0.355 -0.222,-0.063 -0.435,-0.102 -0.639,-0.118 -0.206,-0.016 -0.419,-0.039 -0.639,-0.072 -0.095,0 -0.19,-0.007 -0.284,-0.023 -0.095,-0.016 -0.19,-0.024 -0.284,-0.024 H -67.7 c -0.316,-0.063 -0.632,-0.063 -0.947,0 h -0.426 c -0.221,0.064 -0.434,0.087 -0.639,0.071 -0.205,-0.015 -0.402,0.009 -0.591,0.071 -0.316,0.064 -0.615,0.119 -0.899,0.166 -0.284,0.047 -0.553,0.134 -0.805,0.26 -0.916,0.347 -1.697,0.797 -2.343,1.349 -0.647,0.552 -1.16,1.286 -1.538,2.201 -0.095,0.22 -0.182,0.457 -0.261,0.71 -0.079,0.252 -0.15,0.521 -0.212,0.804 -0.064,0.158 -0.088,0.316 -0.071,0.474 0.015,0.158 0.007,0.315 -0.024,0.473 -0.032,0.095 -0.056,0.292 -0.071,0.592 -0.016,0.299 -0.008,0.513 0.024,0.639 0.062,0.315 0.094,0.584 0.094,0.804 0.095,0.347 0.189,0.702 0.284,1.065 0.095,0.363 0.221,0.687 0.379,0.971 0.536,0.914 1.151,1.609 1.846,2.082 0.693,0.474 1.577,0.883 2.65,1.231 0.41,0.158 0.836,0.267 1.278,0.331 0.442,0.063 0.883,0.142 1.325,0.237 0.252,0.063 0.521,0.102 0.805,0.118 0.284,0.016 0.568,0.055 0.852,0.119 0.22,0.062 0.441,0.086 0.663,0.07 0.22,-0.016 0.457,0.008 0.71,0.072 0.22,0.062 0.441,0.094 0.662,0.094 0.221,0 0.457,0.031 0.71,0.095 0.663,0.157 1.27,0.291 1.822,0.402 0.552,0.11 1.049,0.386 1.491,0.829 0.284,0.283 0.474,0.598 0.568,0.946 0.031,0.095 0.039,0.173 0.024,0.237 -0.016,0.063 -0.008,0.125 0.024,0.189 0.031,0.063 0.047,0.157 0.047,0.284 m 9.419,33.782 c 0,-0.458 -0.017,-0.781 -0.048,-0.971 0,-0.158 -0.008,-0.292 -0.023,-0.402 -0.017,-0.111 -0.024,-0.245 -0.024,-0.402 -0.064,-0.253 -0.095,-0.497 -0.095,-0.734 0,-0.236 -0.031,-0.481 -0.094,-0.733 0,-0.127 -0.032,-0.348 -0.095,-0.663 -0.095,-0.378 -0.182,-0.765 -0.26,-1.159 -0.079,-0.395 -0.198,-0.766 -0.355,-1.112 -0.568,-1.42 -1.278,-2.65 -2.13,-3.692 -0.852,-1.041 -1.972,-1.861 -3.361,-2.461 -0.284,-0.126 -0.576,-0.228 -0.875,-0.307 -0.3,-0.078 -0.624,-0.166 -0.97,-0.26 -0.19,-0.063 -0.387,-0.095 -0.592,-0.095 -0.206,0 -0.402,-0.015 -0.592,-0.047 h -0.426 c -0.189,-0.063 -0.442,-0.086 -0.757,-0.071 -0.316,0.016 -0.568,0.055 -0.757,0.118 h -0.284 c -0.159,0.032 -0.332,0.056 -0.521,0.071 -0.189,0.016 -0.379,0.04 -0.568,0.071 -0.6,0.158 -1.152,0.316 -1.656,0.474 -0.506,0.157 -0.979,0.378 -1.42,0.662 -0.19,0.126 -0.372,0.252 -0.545,0.379 -0.173,0.125 -0.339,0.267 -0.497,0.425 -0.094,0.063 -0.189,0.126 -0.284,0.19 -0.094,0.062 -0.189,0.11 -0.284,0.141 -0.284,0.095 -0.457,0.032 -0.52,-0.189 -0.159,-0.221 -0.261,-0.481 -0.308,-0.78 -0.047,-0.301 -0.166,-0.529 -0.355,-0.687 -0.189,-0.126 -0.41,-0.197 -0.663,-0.213 -0.252,-0.016 -0.536,-0.023 -0.852,-0.023 h -2.271 c -0.221,0 -0.45,-0.007 -0.687,-0.024 -0.236,-0.016 -0.449,0.008 -0.639,0.071 -0.442,0.157 -0.686,0.449 -0.733,0.876 -0.048,0.425 -0.071,0.906 -0.071,1.443 v 28.868 1.088 c 0,0.379 0.078,0.678 0.236,0.9 0.126,0.22 0.347,0.362 0.663,0.425 0.063,0.032 0.134,0.039 0.213,0.024 0.078,-0.016 0.149,-0.008 0.213,0.024 h 2.982 c 0.568,0 1.057,-0.024 1.467,-0.071 0.41,-0.047 0.678,-0.292 0.805,-0.734 0.094,-0.315 0.125,-0.733 0.094,-1.254 -0.031,-0.52 -0.047,-0.97 -0.047,-1.349 v -5.158 -1.041 c 0,-0.348 0.031,-0.647 0.095,-0.9 0.031,-0.157 0.063,-0.292 0.094,-0.402 0.031,-0.111 0.111,-0.182 0.237,-0.212 0.063,-0.064 0.149,-0.095 0.26,-0.095 0.111,0 0.197,0.015 0.261,0.047 0.22,0.126 0.426,0.26 0.615,0.403 0.189,0.141 0.394,0.291 0.615,0.449 0.41,0.284 0.836,0.528 1.278,0.734 0.442,0.204 0.93,0.385 1.467,0.544 0.253,0.094 0.505,0.149 0.758,0.165 0.252,0.016 0.504,0.055 0.757,0.119 0.221,0.063 0.457,0.094 0.71,0.094 h 0.757 0.474 c 0.094,-0.031 0.204,-0.04 0.331,-0.023 0.126,0.015 0.252,0.007 0.379,-0.024 0.346,-0.095 0.67,-0.166 0.97,-0.213 0.299,-0.047 0.591,-0.135 0.875,-0.26 1.451,-0.6 2.635,-1.373 3.55,-2.319 0.915,-0.947 1.688,-2.13 2.319,-3.55 0.158,-0.378 0.292,-0.773 0.403,-1.183 0.11,-0.41 0.228,-0.836 0.355,-1.278 0.063,-0.22 0.102,-0.434 0.118,-0.638 0.016,-0.206 0.055,-0.434 0.118,-0.686 0.063,-0.158 0.087,-0.332 0.071,-0.521 -0.016,-0.189 -0.008,-0.379 0.024,-0.568 v -0.331 c 0.063,-0.19 0.095,-0.513 0.095,-0.97 m 11.677,-19.713 c 0,-0.358 -0.017,-0.691 -0.049,-1 -0.032,-0.309 -0.13,-0.529 -0.292,-0.658 -0.228,-0.163 -0.505,-0.261 -0.829,-0.293 -0.326,-0.032 -0.667,-0.048 -1.024,-0.048 h -3.267 c -0.359,0 -0.7,0.016 -1.025,0.048 -0.325,0.032 -0.569,0.146 -0.731,0.342 -0.163,0.195 -0.261,0.446 -0.293,0.756 -0.032,0.308 -0.048,0.641 -0.048,0.999 v 3.072 0.927 c 0,0.325 0.064,0.568 0.195,0.731 0.129,0.227 0.373,0.406 0.731,0.536 0.065,0 0.138,-0.008 0.22,-0.024 0.08,-0.016 0.154,-0.008 0.219,0.024 h 3.852 1.098 c 0.341,0 0.625,-0.081 0.853,-0.243 0.195,-0.163 0.309,-0.391 0.341,-0.682 0.032,-0.293 0.049,-0.619 0.049,-0.976 z m 22.912,40.985 c 0.031,-0.379 -0.118,-0.71 -0.449,-0.994 -0.332,-0.284 -0.608,-0.537 -0.829,-0.757 -0.253,-0.221 -0.497,-0.45 -0.733,-0.686 -0.237,-0.237 -0.482,-0.45 -0.734,-0.639 -0.126,-0.095 -0.229,-0.197 -0.308,-0.308 -0.079,-0.111 -0.182,-0.197 -0.307,-0.26 -0.064,-0.095 -0.142,-0.174 -0.237,-0.237 -0.158,-0.158 -0.316,-0.307 -0.473,-0.449 -0.159,-0.142 -0.316,-0.277 -0.474,-0.402 -0.063,-0.064 -0.103,-0.111 -0.118,-0.142 -0.016,-0.032 -0.055,-0.08 -0.118,-0.143 -0.253,-0.189 -0.497,-0.394 -0.734,-0.615 -0.236,-0.221 -0.529,-0.394 -0.875,-0.52 -0.127,-0.032 -0.245,-0.048 -0.355,-0.048 -0.111,0 -0.245,-0.016 -0.403,-0.047 -0.094,-0.032 -0.221,-0.04 -0.378,-0.023 -0.159,0.015 -0.301,0.023 -0.426,0.023 h -1.089 c -0.379,0 -0.663,0.079 -0.852,0.237 -0.189,0.125 -0.237,0.346 -0.142,0.662 0.063,0.252 0.173,0.481 0.331,0.686 0.158,0.205 0.3,0.418 0.426,0.64 0.315,0.441 0.616,0.867 0.9,1.277 0.284,0.41 0.568,0.836 0.852,1.278 0.157,0.252 0.323,0.52 0.497,0.804 0.173,0.284 0.37,0.505 0.591,0.663 0.126,0.095 0.347,0.205 0.663,0.331 0.063,0.031 0.149,0.039 0.26,0.024 0.11,-0.017 0.197,-0.008 0.261,0.023 h 3.36 0.899 c 0.347,0 0.599,-0.047 0.758,-0.142 0.062,-0.031 0.102,-0.07 0.118,-0.118 0.015,-0.047 0.055,-0.087 0.118,-0.118 m 4.875,-22.148 c -0.063,-0.316 -0.174,-0.52 -0.331,-0.615 -0.158,-0.127 -0.387,-0.213 -0.686,-0.26 -0.301,-0.048 -0.632,-0.08 -0.994,-0.095 -0.363,-0.016 -0.727,-0.016 -1.089,0 -0.363,0.015 -0.686,0.024 -0.97,0.024 h -11.549 -0.639 c -0.206,0 -0.387,-0.032 -0.544,-0.095 -0.253,-0.126 -0.411,-0.253 -0.473,-0.378 -0.064,-0.064 -0.127,-0.182 -0.19,-0.355 -0.063,-0.174 -0.079,-0.34 -0.047,-0.497 0.063,-0.19 0.102,-0.371 0.118,-0.545 0.016,-0.173 0.055,-0.354 0.119,-0.544 0.252,-0.757 0.559,-1.381 0.923,-1.869 0.362,-0.49 0.859,-0.923 1.49,-1.302 0.253,-0.158 0.513,-0.26 0.781,-0.307 0.268,-0.048 0.545,-0.118 0.829,-0.213 0.252,-0.064 0.599,-0.111 1.041,-0.142 0.441,-0.032 0.82,-0.016 1.136,0.047 h 0.426 c 0.315,0.063 0.607,0.134 0.875,0.213 0.268,0.079 0.528,0.166 0.781,0.26 0.315,0.158 0.67,0.363 1.065,0.615 0.394,0.253 0.687,0.505 0.876,0.758 0.157,0.22 0.323,0.433 0.497,0.638 0.173,0.206 0.386,0.355 0.639,0.45 0.315,0.158 0.717,0.229 1.207,0.213 0.489,-0.016 0.938,-0.023 1.349,-0.023 0.189,0 0.386,0.007 0.591,0.023 0.205,0.016 0.386,-0.008 0.545,-0.071 h 0.473 c 0.315,-0.063 0.536,-0.142 0.663,-0.237 0.125,-0.063 0.196,-0.205 0.213,-0.425 0.015,-0.222 -0.009,-0.41 -0.071,-0.568 -0.159,-0.442 -0.332,-0.837 -0.521,-1.183 -0.189,-0.348 -0.411,-0.695 -0.663,-1.041 -0.694,-1.042 -1.483,-1.878 -2.366,-2.509 -0.884,-0.631 -1.988,-1.167 -3.313,-1.609 -0.348,-0.125 -0.695,-0.205 -1.042,-0.236 -0.347,-0.031 -0.71,-0.095 -1.088,-0.189 -0.127,-0.032 -0.26,-0.04 -0.403,-0.024 -0.141,0.016 -0.276,0.008 -0.402,-0.024 h -0.52 c -0.159,-0.063 -0.34,-0.087 -0.545,-0.071 -0.205,0.017 -0.387,0.04 -0.544,0.071 -0.253,0.032 -0.473,0.032 -0.663,0 -0.189,-0.031 -0.395,-0.015 -0.615,0.048 -0.158,0.063 -0.331,0.094 -0.521,0.094 -0.189,0 -0.363,0.032 -0.52,0.095 -0.348,0.063 -0.695,0.134 -1.042,0.213 -0.347,0.078 -0.662,0.196 -0.946,0.355 -0.348,0.125 -0.671,0.244 -0.97,0.355 -0.301,0.11 -0.576,0.244 -0.829,0.402 -1.01,0.631 -1.909,1.364 -2.698,2.201 -0.789,0.835 -1.436,1.805 -1.94,2.91 -0.158,0.347 -0.284,0.701 -0.379,1.065 -0.094,0.362 -0.221,0.733 -0.378,1.112 -0.032,0.125 -0.048,0.244 -0.048,0.355 0,0.11 -0.016,0.228 -0.047,0.354 -0.127,0.379 -0.206,0.789 -0.237,1.231 -0.032,0.441 -0.063,0.883 -0.094,1.325 0,0.158 -0.008,0.331 -0.024,0.521 -0.016,0.189 -0.008,0.362 0.024,0.521 v 0.567 l 0.142,1.136 c 0.125,0.536 0.236,1.057 0.331,1.562 0.095,0.504 0.237,0.977 0.426,1.42 1.356,3.28 3.66,5.599 6.91,6.956 0.442,0.189 0.891,0.323 1.349,0.403 0.457,0.078 0.939,0.181 1.444,0.307 0.252,0.031 0.488,0.047 0.71,0.047 0.22,0 0.457,0.016 0.71,0.048 1.609,0.031 2.989,-0.151 4.141,-0.545 1.151,-0.395 2.185,-0.907 3.1,-1.538 0.284,-0.189 0.568,-0.402 0.852,-0.638 0.284,-0.237 0.536,-0.482 0.757,-0.734 0.095,-0.158 0.221,-0.284 0.379,-0.379 0.252,-0.347 0.489,-0.702 0.71,-1.065 0.22,-0.362 0.457,-0.733 0.71,-1.111 0.158,-0.285 0.291,-0.577 0.402,-0.876 0.111,-0.3 0.229,-0.623 0.355,-0.97 0.158,-0.411 0.284,-0.837 0.379,-1.278 0.095,-0.442 0.205,-0.884 0.331,-1.325 0.063,-0.253 0.087,-0.529 0.071,-0.828 -0.016,-0.301 0.008,-0.576 0.071,-0.828 v -0.521 c 0.063,-0.253 0.063,-0.537 0,-0.852 m -7.099,3.644 c 0.22,0.315 0.244,0.702 0.071,1.16 -0.174,0.456 -0.308,0.796 -0.403,1.017 -0.442,0.852 -1.025,1.506 -1.751,1.964 -0.726,0.457 -1.736,0.702 -3.029,0.734 -0.095,-0.064 -0.206,-0.079 -0.331,-0.048 -0.127,0.031 -0.237,0.031 -0.332,0 -0.158,-0.063 -0.331,-0.103 -0.52,-0.118 -0.19,-0.016 -0.363,-0.056 -0.521,-0.119 -1.389,-0.441 -2.414,-1.309 -3.077,-2.602 -0.063,-0.127 -0.134,-0.292 -0.212,-0.497 -0.08,-0.206 -0.135,-0.411 -0.166,-0.615 -0.032,-0.206 -0.024,-0.403 0.024,-0.592 0.047,-0.189 0.149,-0.347 0.307,-0.473 0.252,-0.159 0.599,-0.237 1.042,-0.237 h 1.277 5.254 c 0.442,0 0.907,0.008 1.396,0.024 0.489,0.015 0.812,0.149 0.971,0.402 M -57.69,52.994 c 0.079,0.473 0.126,0.953 0.142,1.443 0.016,0.489 0.016,0.978 0,1.467 -0.016,0.489 -0.071,0.907 -0.165,1.254 -0.095,0.315 -0.158,0.615 -0.19,0.899 -0.031,0.284 -0.11,0.552 -0.236,0.805 -0.442,1.103 -1.065,2.042 -1.87,2.815 -0.804,0.773 -1.98,1.16 -3.526,1.16 -0.126,0 -0.236,-0.008 -0.331,-0.024 -0.095,-0.016 -0.206,-0.023 -0.332,-0.023 -0.221,-0.064 -0.425,-0.119 -0.615,-0.166 -0.189,-0.047 -0.378,-0.103 -0.568,-0.166 -0.915,-0.41 -1.609,-0.986 -2.082,-1.727 -0.474,-0.742 -0.869,-1.585 -1.184,-2.532 -0.094,-0.253 -0.15,-0.513 -0.165,-0.781 -0.017,-0.268 -0.056,-0.528 -0.119,-0.781 -0.031,-0.094 -0.047,-0.252 -0.047,-0.473 -0.032,-0.126 -0.04,-0.253 -0.024,-0.378 0.016,-0.127 0.008,-0.253 -0.023,-0.379 -0.064,-0.253 -0.079,-0.6 -0.048,-1.041 0.031,-0.442 0.079,-0.758 0.142,-0.947 0.063,-0.284 0.102,-0.552 0.119,-0.804 0.015,-0.253 0.071,-0.505 0.165,-0.758 0.284,-0.883 0.623,-1.648 1.018,-2.294 0.394,-0.647 0.954,-1.192 1.68,-1.633 0.505,-0.316 1.025,-0.537 1.562,-0.663 0.063,0 0.134,-0.008 0.213,-0.023 0.079,-0.017 0.166,-0.024 0.26,-0.024 0.095,-0.032 0.253,-0.055 0.474,-0.071 0.22,-0.017 0.409,-0.008 0.568,0.023 0.315,0.063 0.607,0.119 0.875,0.166 0.268,0.048 0.528,0.119 0.781,0.213 0.883,0.41 1.57,0.978 2.059,1.704 0.489,0.725 0.891,1.577 1.207,2.556 0.095,0.314 0.181,0.709 0.26,1.183 M -60.269,14.36 c -0.064,0.189 -0.095,0.362 -0.095,0.521 0,0.157 -0.063,0.284 -0.189,0.378 -0.158,0.126 -0.395,0.19 -0.71,0.19 -0.126,-0.032 -0.237,-0.056 -0.331,-0.072 -0.095,-0.016 -0.206,-0.039 -0.332,-0.07 -0.221,-0.064 -0.457,-0.111 -0.71,-0.142 -0.253,-0.032 -0.505,-0.08 -0.757,-0.143 -0.095,-0.031 -0.237,-0.047 -0.426,-0.047 -0.41,-0.094 -0.821,-0.158 -1.23,-0.189 -0.411,-0.032 -0.805,-0.111 -1.184,-0.237 -0.253,-0.063 -0.489,-0.118 -0.71,-0.165 -0.221,-0.048 -0.442,-0.119 -0.662,-0.213 -0.663,-0.284 -1.224,-0.711 -1.681,-1.278 -0.457,-0.568 -0.623,-1.357 -0.497,-2.367 0.063,-0.537 0.237,-0.978 0.521,-1.325 0.22,-0.347 0.552,-0.623 0.994,-0.828 0.442,-0.206 0.923,-0.355 1.444,-0.45 0.52,-0.095 1.072,-0.118 1.656,-0.071 0.584,0.047 1.128,0.149 1.633,0.308 0.82,0.252 1.467,0.654 1.941,1.207 0.473,0.551 0.835,1.237 1.088,2.058 0.063,0.221 0.102,0.45 0.119,0.687 0.015,0.237 0.054,0.48 0.118,0.733 v 0.426 c 0.031,0.158 0.047,0.339 0.047,0.544 0,0.206 -0.016,0.387 -0.047,0.545"
                 style="fill:#000000;fill-opacity:1;fill-rule:nonzero;stroke:none"
                 id="path30" />
            </g>
          </g>
        </g>
      </g>
    </g>
  </g>
</svg>
